<?xml version="1.0" encoding="UTF-8" standalone="no"?>
<!-- Generator: Adobe Illustrator 15.0.0, SVG Export Plug-In . SVG Version: 6.00 Build 0)  -->

<svg
   xmlns:dc="http://purl.org/dc/elements/1.1/"
   xmlns:cc="http://creativecommons.org/ns#"
   xmlns:rdf="http://www.w3.org/1999/02/22-rdf-syntax-ns#"
   xmlns:svg="http://www.w3.org/2000/svg"
   xmlns="http://www.w3.org/2000/svg"
   xmlns:sodipodi="http://sodipodi.sourceforge.net/DTD/sodipodi-0.dtd"
   xmlns:inkscape="http://www.inkscape.org/namespaces/inkscape"
   version="1.1"
   id="图层_1"
   x="0px"
   y="0px"
   width="524.40942"
   height="372.04724"
   viewBox="0 0 524.40941 372.04725"
   enable-background="new 0 0 739.463 341.982"
   xml:space="preserve"
   inkscape:version="0.48.5 r10040"
   sodipodi:docname="uSEE_logo_seed_toney_v160323.svg"><metadata
     id="metadata3250"><rdf:RDF><cc:Work
         rdf:about=""><dc:format>image/svg+xml</dc:format><dc:type
           rdf:resource="http://purl.org/dc/dcmitype/StillImage" /><dc:title></dc:title></cc:Work></rdf:RDF></metadata><defs
     id="defs3248" /><sodipodi:namedview
     pagecolor="#ffffff"
     bordercolor="#666666"
     borderopacity="1"
     objecttolerance="10"
     gridtolerance="10"
     guidetolerance="10"
     inkscape:pageopacity="0"
     inkscape:pageshadow="2"
     inkscape:window-width="1319"
     inkscape:window-height="865"
     id="namedview3246"
     showgrid="false"
     inkscape:zoom="1.369913"
     inkscape:cx="278.11985"
     inkscape:cy="170.991"
     inkscape:window-x="108"
     inkscape:window-y="69"
     inkscape:window-maximized="0"
     inkscape:current-layer="图层_1" /><g
     id="g3290"
     transform="matrix(4.7605087,0,0,4.8267125,-2504.7386,-524.03646)"><g
       id="g3182"><path
         id="path3184"
         d="m 545.123,174.062 c 0,3.131 2.538,5.668 5.669,5.668 h 60.873 c 3.131,0 5.669,-2.537 5.669,-5.668 V 120.16 c 0,-3.131 -2.538,-5.669 -5.669,-5.669 h -60.873 c -3.131,0 -5.669,2.538 -5.669,5.669 v 53.902 z"
         inkscape:connector-curvature="0"
         style="fill:#e60027" /></g><path
       id="path3194"
       d="m 553.891,173.661 c -1.788,0 -3.237,-0.871 -3.237,-4.719 v -44.847 h 1.087 v 44.847 c 0,2.582 0.951,3.379 2.15,3.379 h 11.863 c 1.177,0 2.151,-0.797 2.151,-3.379 v -44.847 h 1.064 v 44.847 c 0,3.848 -1.449,4.719 -3.216,4.719 h -11.862 z"
       inkscape:connector-curvature="0"
       style="fill:#ffffff" /><g
       id="g3196"><path
         id="path3198"
         d="m 595.683,125.477 v 9.033 h 13.879 v 1.135 h -13.879 v 9.317 c 0,1.253 0.79,1.68 1.786,1.68 h 12.093 v 1.135 h -12.093 c -1.485,0 -2.688,-0.947 -2.688,-2.814 v -19.484 c 0,-1.869 1.203,-3.099 2.688,-3.099 h 12.093 v 1.111 h -12.093 c -0.996,-0.001 -1.786,0.732 -1.786,1.986 z"
         inkscape:connector-curvature="0"
         style="fill:#ffffff" /></g><g
       id="g3200"><path
         id="path3202"
         d="m 595.683,151.919 v 8.749 h 13.879 v 1.135 h -13.879 v 9.03 c 0,1.25 0.79,1.676 1.786,1.676 h 12.093 v 1.133 h -12.093 c -1.485,0 -2.688,-0.943 -2.688,-2.809 v -18.914 c 0,-1.868 1.203,-3.098 2.688,-3.098 h 12.093 v 1.111 h -12.093 c -0.996,0.001 -1.786,0.734 -1.786,1.987 z"
         inkscape:connector-curvature="0"
         style="fill:#ffffff" /></g><g
       id="g3204"><path
         id="path3206"
         d="m 551.19,120.761 c -0.994,0 -1.8,0.805 -1.8,1.799 0,0.994 0.806,1.799 1.8,1.799 0.993,0 1.799,-0.805 1.799,-1.799 0,-0.994 -0.806,-1.799 -1.799,-1.799 z m 0,2.772 c -0.537,0 -0.974,-0.436 -0.974,-0.973 0,-0.537 0.437,-0.973 0.974,-0.973 0.537,0 0.972,0.436 0.972,0.973 0,0.537 -0.435,0.973 -0.972,0.973 z"
         inkscape:connector-curvature="0"
         style="fill:#ffffff" /></g><g
       id="g3208"><path
         id="path3210"
         d="m 568.38,120.761 c -0.993,0 -1.799,0.805 -1.799,1.799 0,0.994 0.806,1.799 1.799,1.799 0.994,0 1.8,-0.805 1.8,-1.799 0,-0.994 -0.805,-1.799 -1.8,-1.799 z m 0,2.772 c -0.537,0 -0.973,-0.436 -0.973,-0.973 0,-0.537 0.436,-0.973 0.973,-0.973 0.537,0 0.974,0.436 0.974,0.973 0,0.537 -0.437,0.973 -0.974,0.973 z"
         inkscape:connector-curvature="0"
         style="fill:#ffffff" /></g><g
       id="g3212"><path
         id="path3214"
         d="m 610.5,121.043 c -0.994,0 -1.8,0.805 -1.8,1.799 0,0.993 0.806,1.799 1.8,1.799 0.993,0 1.799,-0.806 1.799,-1.799 0,-0.993 -0.805,-1.799 -1.799,-1.799 z m 0,2.772 c -0.537,0 -0.974,-0.436 -0.974,-0.973 0,-0.537 0.437,-0.972 0.974,-0.972 0.537,0 0.973,0.435 0.973,0.972 0,0.537 -0.435,0.973 -0.973,0.973 z"
         inkscape:connector-curvature="0"
         style="fill:#ffffff" /></g><g
       id="g3216"><path
         id="path3218"
         d="m 610.5,171.104 c -0.994,0 -1.8,0.805 -1.8,1.797 0,0.992 0.806,1.795 1.8,1.795 0.993,0 1.799,-0.803 1.799,-1.795 0,-0.992 -0.805,-1.797 -1.799,-1.797 z m 0,2.768 c -0.537,0 -0.974,-0.434 -0.974,-0.971 0,-0.537 0.437,-0.971 0.974,-0.971 0.537,0 0.973,0.434 0.973,0.971 0,0.537 -0.435,0.971 -0.973,0.971 z"
         inkscape:connector-curvature="0"
         style="fill:#ffffff" /></g><g
       id="g3220"><path
         id="path3222"
         d="m 610.5,159.437 c -0.994,0 -1.8,0.806 -1.8,1.799 0,0.993 0.806,1.799 1.8,1.799 0.993,0 1.799,-0.805 1.799,-1.799 0,-0.994 -0.805,-1.799 -1.799,-1.799 z m 0,2.771 c -0.537,0 -0.974,-0.435 -0.974,-0.972 0,-0.538 0.437,-0.973 0.974,-0.973 0.537,0 0.973,0.435 0.973,0.973 0,0.537 -0.435,0.972 -0.973,0.972 z"
         inkscape:connector-curvature="0"
         style="fill:#ffffff" /></g><path
       id="path3224"
       d="m 610.5,146.304 c -1.104,0 -1.998,0.894 -1.998,1.998 0,1.103 0.895,1.997 1.998,1.997 1.103,0 1.998,-0.894 1.998,-1.997 10e-4,-1.104 -0.895,-1.998 -1.998,-1.998 z m 0,2.84 c -0.465,0 -0.842,-0.377 -0.842,-0.842 0,-0.465 0.377,-0.841 0.842,-0.841 0.465,0 0.842,0.376 0.842,0.841 0,0.464 -0.377,0.842 -0.842,0.842 z"
       inkscape:connector-curvature="0"
       style="fill:#ffffff" /><g
       id="g3226"><path
         id="path3228"
         d="m 610.5,133.278 c -0.994,0 -1.8,0.805 -1.8,1.799 0,0.994 0.806,1.799 1.8,1.799 0.993,0 1.799,-0.806 1.799,-1.799 0,-0.993 -0.805,-1.799 -1.799,-1.799 z m 0,2.772 c -0.537,0 -0.974,-0.435 -0.974,-0.973 0,-0.537 0.437,-0.972 0.974,-0.972 0.537,0 0.973,0.435 0.973,0.972 0,0.538 -0.435,0.973 -0.973,0.973 z"
         inkscape:connector-curvature="0"
         style="fill:#ffffff" /></g><g
       id="g3230"><path
         id="path3232"
         d="m 575.823,173.655 v -1.34 h 12.31 c 1.177,0 2.151,-0.547 2.151,-3.129 V 151.54 c 0,-2.586 -0.985,-2.789 -2.162,-2.789 h -11.864 c -1.787,0 -3.226,-0.967 -3.226,-4.822 v -17.147 c 0,-3.855 1.449,-4.977 3.236,-4.977 h 12.062 v 1.292 h -12.062 c -1.198,0 -2.149,1.098 -2.149,3.684 v 17.147 c 0,2.537 0.951,3.635 2.149,3.635 h 11.864 c 1.767,0 3.216,0.122 3.216,3.976 v 17.647 c 0,3.848 -1.449,4.469 -3.216,4.469 h -12.309 z"
         inkscape:connector-curvature="0"
         style="fill:#ffffff" /><g
         id="g3234"><path
           id="path3236"
           d="m 589.444,120.644 c -0.993,0 -1.799,0.805 -1.799,1.799 0,0.994 0.806,1.798 1.799,1.798 0.993,0 1.799,-0.805 1.799,-1.798 0,-0.993 -0.806,-1.799 -1.799,-1.799 z m 0,2.771 c -0.536,0 -0.973,-0.435 -0.973,-0.972 0,-0.537 0.437,-0.973 0.973,-0.973 0.537,0 0.973,0.436 0.973,0.973 0,0.537 -0.436,0.972 -0.973,0.972 z"
           inkscape:connector-curvature="0"
           style="fill:#ffffff" /></g><g
         id="g3238"><path
           id="path3240"
           d="m 574.834,171.161 c -0.994,0 -1.799,0.805 -1.799,1.797 0,0.992 0.805,1.795 1.799,1.795 0.993,0 1.799,-0.803 1.799,-1.795 0,-0.992 -0.805,-1.797 -1.799,-1.797 z m 0,2.768 c -0.537,0 -0.973,-0.436 -0.973,-0.971 0,-0.537 0.436,-0.971 0.973,-0.971 0.537,0 0.973,0.434 0.973,0.971 0,0.535 -0.435,0.971 -0.973,0.971 z"
           inkscape:connector-curvature="0"
           style="fill:#ffffff" /></g></g></g></svg>